<svg width="40" height="40" viewBox="0 0 40 40" fill="none" xmlns="http://www.w3.org/2000/svg">
<rect width="40" height="40" rx="20" fill="#2B2B2B"/>
<path d="M31.3389 14.6577L29.1779 16.8187C28.9575 17.039 28.6013 17.039 28.3809 16.8187L23.1776 11.6154C22.9573 11.3951 22.9573 11.0388 23.1776 10.8185L25.3386 8.65745C26.2152 7.78085 27.6403 7.78085 28.5216 8.65745L31.3389 11.4747C32.2202 12.3513 32.2202 13.7764 31.3389 14.6577ZM21.3213 12.6748L9.01143 24.9847L8.01764 30.6802C7.8817 31.449 8.55204 32.1146 9.32082 31.9834L15.0164 30.9849L27.3262 18.675C27.5465 18.4547 27.5465 18.0984 27.3262 17.8781L22.1229 12.6748C21.8979 12.4545 21.5416 12.4545 21.3213 12.6748ZM13.8163 23.9299C13.5585 23.6721 13.5585 23.2596 13.8163 23.0018L21.0353 15.7827C21.2932 15.5249 21.7057 15.5249 21.9635 15.7827C22.2213 16.0406 22.2213 16.4531 21.9635 16.7109L14.7445 23.9299C14.4866 24.1878 14.0741 24.1878 13.8163 23.9299ZM12.1241 27.8723H14.3741V29.5739L11.3506 30.1036L9.89271 28.6457L10.4224 25.6222H12.1241V27.8723Z" fill="#F1F1F1"/>
</svg>
