<svg width="40" height="40" viewBox="0 0 40 40" fill="none" xmlns="http://www.w3.org/2000/svg">
<rect width="40" height="40" rx="20" fill="#2B2B2B"/>
<path d="M9.5 30C8.8125 30 8.22417 29.7554 7.735 29.2662C7.245 28.7762 7 28.1875 7 27.5V12.5C7 11.8125 7.245 11.2242 7.735 10.735C8.22417 10.245 8.8125 10 9.5 10H29.5C30.1875 10 30.7763 10.245 31.2663 10.735C31.7554 11.2242 32 11.8125 32 12.5V27.5C32 28.1875 31.7554 28.7762 31.2663 29.2662C30.7763 29.7554 30.1875 30 29.5 30H9.5ZM19.5 21.25L29.5 15V12.5L19.5 18.75L9.5 12.5V15L19.5 21.25Z" fill="#F1F1F1"/>
</svg>
