<svg width="40" height="40" viewBox="0 0 40 40" fill="none" xmlns="http://www.w3.org/2000/svg">
<rect width="40" height="40" rx="20" fill="#2B2B2B"/>
<path d="M19.9375 32C21.6621 32 23.0611 30.6011 23.0611 28.875H16.814C16.814 30.6011 18.2129 32 19.9375 32ZM30.4546 24.6899C29.5113 23.6763 27.7461 22.1514 27.7461 17.1562C27.7461 13.3623 25.086 10.3252 21.4991 9.58008V8.5625C21.4991 7.69971 20.7998 7 19.9375 7C19.0752 7 18.376 7.69971 18.376 8.5625V9.58008C14.7891 10.3252 12.1289 13.3623 12.1289 17.1562C12.1289 22.1514 10.3638 23.6763 9.42044 24.6899C9.12748 25.0049 8.99759 25.3813 9.00003 25.75C9.0054 26.5508 9.63382 27.3125 10.5674 27.3125H29.3077C30.2412 27.3125 30.8702 26.5508 30.875 25.75C30.8775 25.3813 30.7476 25.0044 30.4546 24.6899Z" fill="#F1F1F1"/>
</svg>
