<svg width="40" height="40" viewBox="0 0 40 40" fill="none" xmlns="http://www.w3.org/2000/svg">
<rect width="40" height="40" rx="20" fill="#2B2B2B"/>
<path d="M9.376 22.8C8.624 22.8 8.04 22.592 7.624 22.176C7.208 21.76 7 21.168 7 20.4C7 19.696 7.216 19.12 7.648 18.672C8.096 18.224 8.672 18 9.376 18C10.128 18 10.712 18.208 11.128 18.624C11.544 19.04 11.752 19.632 11.752 20.4C11.752 21.104 11.528 21.68 11.08 22.128C10.648 22.576 10.08 22.8 9.376 22.8Z" fill="white"/>
<path d="M19.6557 22.8C18.9037 22.8 18.3197 22.592 17.9037 22.176C17.4877 21.76 17.2797 21.168 17.2797 20.4C17.2797 19.696 17.4957 19.12 17.9277 18.672C18.3757 18.224 18.9517 18 19.6557 18C20.4077 18 20.9917 18.208 21.4077 18.624C21.8237 19.04 22.0317 19.632 22.0317 20.4C22.0317 21.104 21.8077 21.68 21.3597 22.128C20.9277 22.576 20.3597 22.8 19.6557 22.8Z" fill="white"/>
<path d="M29.9354 22.8C29.1834 22.8 28.5994 22.592 28.1834 22.176C27.7674 21.76 27.5594 21.168 27.5594 20.4C27.5594 19.696 27.7754 19.12 28.2074 18.672C28.6554 18.224 29.2314 18 29.9354 18C30.6874 18 31.2714 18.208 31.6874 18.624C32.1034 19.04 32.3114 19.632 32.3114 20.4C32.3114 21.104 32.0874 21.68 31.6394 22.128C31.2074 22.576 30.6394 22.8 29.9354 22.8Z" fill="white"/>
</svg>
