<svg width="40" height="40" viewBox="0 0 40 40" fill="none" xmlns="http://www.w3.org/2000/svg">
<rect width="40" height="40" rx="20" fill="#2B2B2B"/>
<path d="M32.6582 28.6162L27.79 23.748C27.5703 23.5283 27.2725 23.4062 26.96 23.4062H26.1641C27.5117 21.6826 28.3125 19.5146 28.3125 17.1562C28.3125 11.5459 23.7666 7 18.1562 7C12.5459 7 8 11.5459 8 17.1562C8 22.7666 12.5459 27.3125 18.1562 27.3125C20.5146 27.3125 22.6826 26.5117 24.4062 25.1641V25.96C24.4062 26.2725 24.5283 26.5703 24.748 26.79L29.6162 31.6582C30.0752 32.1172 30.8174 32.1172 31.2715 31.6582L32.6533 30.2764C33.1123 29.8174 33.1123 29.0752 32.6582 28.6162ZM18.1562 23.4062C14.7041 23.4062 11.9062 20.6133 11.9062 17.1562C11.9062 13.7041 14.6992 10.9062 18.1562 10.9062C21.6084 10.9062 24.4062 13.6992 24.4062 17.1562C24.4062 20.6084 21.6133 23.4062 18.1562 23.4062Z" fill="#F1F1F1"/>
</svg>
